<?xml version="1.0" standalone="no"?>
<!DOCTYPE svg PUBLIC "-//W3C//DTD SVG 20010904//EN"
 "http://www.w3.org/TR/2001/REC-SVG-20010904/DTD/svg10.dtd">
<svg version="1.0" xmlns="http://www.w3.org/2000/svg"
 width="256.000000pt" height="256.000000pt" viewBox="0 0 256.000000 256.000000"
 preserveAspectRatio="xMidYMid meet">
<metadata>
Created by potrace 1.11, written by Peter Selinger 2001-2013
</metadata>
<g transform="translate(0.000000,256.000000) scale(0.100000,-0.100000)"
fill="#000000" stroke="none">
<path d="M393 2396 c-98 -31 -181 -105 -226 -203 l-22 -48 0 -860 c0 -808 1
-862 18 -898 10 -20 15 -42 11 -49 -4 -7 -3 -8 4 -4 11 7 17 -6 13 -27 -1 -5
3 -6 8 -2 11 6 33 -28 26 -39 -3 -3 -2 -4 2 -1 10 8 33 -16 26 -28 -3 -5 -1
-7 5 -3 6 3 16 0 24 -7 7 -7 28 -19 45 -26 18 -7 31 -16 29 -20 -2 -3 10 -7
26 -8 17 -1 37 -8 46 -15 13 -11 14 -11 7 1 -5 9 -4 12 3 7 6 -3 27 -7 46 -8
22 -1 33 -5 29 -12 -4 -6 1 -5 9 2 18 15 59 13 70 -3 5 -6 8 -6 8 1 0 13 218
13 239 0 10 -6 12 -6 7 2 -5 8 5 12 34 12 29 0 39 -4 34 -12 -5 -7 -3 -8 7 -2
24 15 60 16 77 2 12 -10 14 -10 8 -1 -9 16 -1 16 26 2 11 -6 18 -7 15 -2 -8
13 253 11 272 -1 10 -6 12 -6 7 2 -5 8 5 12 34 12 29 0 39 -4 34 -12 -5 -7 -3
-8 7 -2 24 15 60 16 77 2 12 -10 14 -10 8 -1 -9 16 -1 16 26 2 11 -6 18 -7 15
-2 -8 13 253 11 272 -1 10 -6 12 -6 7 2 -5 8 5 12 34 12 29 0 39 -4 34 -12 -5
-7 -3 -8 7 -2 24 15 60 16 77 2 12 -10 14 -10 8 0 -9 15 -1 15 26 1 14 -8 18
-8 14 0 -5 7 8 9 38 7 25 -2 44 -1 42 3 -2 3 7 7 20 7 13 1 24 -2 24 -7 0 -5
9 0 20 11 11 11 29 20 40 20 11 0 20 5 20 10 0 6 6 10 14 10 8 0 17 6 19 13 4
9 6 9 6 0 1 -7 6 -13 12 -13 5 0 7 5 3 11 -3 6 10 26 30 45 20 19 36 38 36 42
0 5 9 18 20 30 11 12 20 25 19 29 -3 20 2 34 10 28 6 -3 8 6 5 21 -3 19 -1 24
8 18 10 -6 9 -3 -1 9 -7 9 -9 17 -3 17 5 0 8 10 4 22 -3 12 -1 19 5 15 5 -3
10 0 10 8 0 8 -4 12 -9 9 -16 -10 -8 9 10 22 16 13 16 14 0 8 -21 -7 -23 6 -5
25 10 11 10 13 -1 7 -18 -11 -15 5 6 20 14 11 14 13 1 9 -12 -5 -16 1 -17 25
0 17 3 28 7 26 4 -3 8 1 8 9 0 8 -4 12 -9 9 -4 -3 -8 2 -8 11 0 9 4 14 9 10 5
-3 13 0 17 6 4 7 3 9 -4 5 -6 -3 -14 -1 -18 5 -3 6 0 15 7 20 10 6 11 9 2 9
-7 0 -13 5 -13 11 0 5 4 8 9 4 5 -3 13 -1 16 5 4 6 1 9 -6 8 -7 -2 -14 9 -15
25 -2 15 1 25 5 23 4 -3 8 1 8 9 0 8 -4 12 -9 9 -16 -10 -8 9 10 22 16 13 16
14 0 8 -21 -7 -23 6 -5 25 9 11 9 13 0 7 -19 -11 -16 5 4 20 15 11 15 13 2 9
-12 -5 -16 1 -17 25 0 17 3 28 7 26 4 -3 8 1 8 9 0 8 -4 12 -9 9 -4 -3 -8 2
-8 11 0 9 4 14 9 10 5 -3 13 0 17 6 4 7 3 9 -4 5 -6 -3 -14 -1 -18 5 -3 6 0
15 7 20 10 6 11 9 2 9 -7 0 -13 5 -13 11 0 5 4 8 9 4 5 -3 13 -1 16 5 4 6 1 9
-6 8 -7 -2 -14 9 -15 25 -2 15 1 25 5 23 4 -3 8 1 8 9 0 8 -4 12 -9 9 -16 -10
-8 9 10 22 16 13 16 14 0 8 -21 -7 -23 6 -5 25 10 11 10 13 -1 7 -18 -11 -15
5 5 20 15 11 15 13 2 9 -12 -5 -16 1 -17 25 0 17 3 28 7 26 4 -3 8 1 8 9 0 8
-4 12 -9 9 -4 -3 -8 2 -8 11 0 9 4 14 9 10 5 -3 13 0 17 6 4 7 3 9 -4 5 -6 -3
-14 -1 -18 5 -3 6 0 15 7 20 10 6 11 9 2 9 -7 0 -13 5 -13 11 0 5 4 8 9 4 5
-3 13 -1 16 5 4 6 1 9 -6 8 -7 -2 -14 9 -15 25 -2 15 1 25 5 23 4 -3 8 1 8 9
0 8 -4 12 -9 9 -16 -10 -8 9 10 22 16 13 16 14 0 8 -21 -7 -23 6 -5 25 10 11
10 13 -1 7 -18 -11 -15 5 6 20 14 11 14 13 1 9 -12 -5 -16 1 -17 25 0 17 3 28
7 26 4 -3 8 1 8 9 0 8 -4 12 -9 9 -4 -3 -8 2 -8 11 0 9 4 14 9 10 5 -3 13 0
17 6 4 7 3 9 -4 5 -6 -3 -14 -1 -18 5 -3 6 0 15 7 20 10 6 11 9 2 9 -7 0 -13
5 -13 11 0 5 4 8 9 4 5 -3 13 -1 16 5 4 6 1 9 -6 8 -7 -2 -14 9 -15 25 -2 15
1 25 5 23 4 -3 8 1 8 9 0 8 -4 12 -9 9 -16 -10 -8 9 10 22 16 13 16 14 0 8
-21 -7 -23 6 -5 25 10 11 10 13 0 7 -19 -11 -16 5 5 20 14 11 14 13 1 9 -12
-5 -16 1 -17 25 0 17 3 28 7 26 4 -3 8 1 8 9 0 8 -4 12 -9 9 -4 -3 -8 2 -8 11
0 9 4 14 9 10 5 -3 13 -1 16 5 4 6 1 9 -6 8 -6 -2 -14 3 -17 11 -3 9 0 11 8 6
10 -6 11 -4 4 6 -8 13 -12 41 -17 132 -1 15 -6 27 -10 27 -5 0 -5 5 -2 10 3 6
2 10 -4 10 -8 0 -14 11 -23 45 -2 5 -21 29 -43 53 -22 25 -39 48 -38 52 1 4
-3 7 -10 7 -7 -1 -39 12 -72 29 l-60 29 -845 2 c-683 2 -853 -1 -887 -11z"/>
<path d="M868 143 c6 -2 18 -2 25 0 6 3 1 5 -13 5 -14 0 -19 -2 -12 -5z"/>
<path d="M1348 143 c6 -2 18 -2 25 0 6 3 1 5 -13 5 -14 0 -19 -2 -12 -5z"/>
<path d="M1828 143 c6 -2 18 -2 25 0 6 3 1 5 -13 5 -14 0 -19 -2 -12 -5z"/>
</g>
</svg>
